<svg width="29" height="41" viewBox="0 0 29 41" fill="none" xmlns="http://www.w3.org/2000/svg">
<path fill-rule="evenodd" clip-rule="evenodd" d="M29 2.92857C29 2.15187 28.6945 1.40697 28.1506 0.85776C27.6068 0.308547 26.8691 1.32167e-06 26.1 1.32167e-06C25.3309 1.32167e-06 24.5932 0.308547 24.0494 0.85776C23.5055 1.40697 23.2 2.15187 23.2 2.92857V14.6429L4.64 0.585715C4.20915 0.259393 3.69682 0.0606775 3.16044 0.0118349C2.62405 -0.0370078 2.08478 0.0659522 1.60308 0.309178C1.12137 0.552405 0.716252 0.926288 0.433112 1.38893C0.149972 1.85158 -9.53674e-07 2.3847 -9.53674e-07 2.92857V38.0714C-9.53674e-07 38.6153 0.149972 39.1484 0.433112 39.6111C0.716252 40.0737 1.12137 40.4476 1.60308 40.6908C2.08478 40.934 2.62405 41.037 3.16044 40.9882C3.69682 40.9393 4.20915 40.7406 4.64 40.4143L23.2 26.3571V38.0714C23.2 38.8481 23.5055 39.593 24.0494 40.1422C24.5932 40.6915 25.3309 41 26.1 41C26.8691 41 27.6068 40.6915 28.1506 40.1422C28.6945 39.593 29 38.8481 29 38.0714V2.92857Z" fill="#2E2E39"/>
</svg>
