<svg width="111" height="71" viewBox="0 0 111 71" fill="none" xmlns="http://www.w3.org/2000/svg">
<path opacity="0.2" d="M106.449 35.5C80.81 90.1553 67.9906 62.8301 55.1711 35.5H106.449ZM3.89335 35.5H55.1711C42.3517 8.16998 29.5322 -19.1552 3.89335 35.5Z" fill="#00AEFF"/>
<path d="M110.019 37.1764C99.1714 60.2514 89.6061 71 79.8436 71C67.4679 71 59.7615 54.5714 51.6014 37.1764C45.1621 23.4497 37.8649 7.88889 30.5184 7.88889C22.4322 7.88889 12.6155 26.2355 7.4828 37.1764C7.02613 38.1034 6.22393 38.8141 5.2487 39.1558C4.27348 39.4975 3.20311 39.4428 2.26776 39.0035C1.33242 38.5643 0.606793 37.7755 0.246923 36.8069C-0.112946 35.8382 -0.0783206 34.767 0.343355 33.8236C11.1462 10.7486 20.7361 0 30.5184 0C42.894 0 50.6005 16.4286 58.7606 33.8236C65.1802 47.5503 72.4774 63.1111 79.8239 63.1111C87.91 63.1111 97.7268 44.7645 102.859 33.8236C103.316 32.8966 104.118 32.1859 105.094 31.8442C106.069 31.5025 107.139 31.5572 108.075 31.9964C109.01 32.4357 109.735 33.2245 110.095 34.1931C110.455 35.1618 110.421 36.233 109.999 37.1764H110.019Z" fill="#00AEFF"/>
</svg>
